<?xml version="1.0" encoding="utf-8"?>
<!-- Generator: Adobe Illustrator 22.1.0, SVG Export Plug-In . SVG Version: 6.00 Build 0)  -->
<svg version="1.1"
	 id="svg2" inkscape:version="0.48.5 r10040" sodipodi:docname="Facebook Logo.svg" xmlns:cc="http://creativecommons.org/ns#" xmlns:dc="http://purl.org/dc/elements/1.1/" xmlns:inkscape="http://www.inkscape.org/namespaces/inkscape" xmlns:rdf="http://www.w3.org/1999/02/22-rdf-syntax-ns#" xmlns:sodipodi="http://sodipodi.sourceforge.net/DTD/sodipodi-0.dtd" xmlns:svg="http://www.w3.org/2000/svg"
	 xmlns="http://www.w3.org/2000/svg" xmlns:xlink="http://www.w3.org/1999/xlink" x="0px" y="0px" viewBox="0 0 1002 205.1"
	 style="enable-background:new 0 0 1002 205.1;" xml:space="preserve">
<style type="text/css">
	.st0{fill:#3B5998;}
</style>
<sodipodi:namedview  bordercolor="#666666" borderopacity="1" fit-margin-bottom="0" fit-margin-left="0" fit-margin-right="0" fit-margin-top="0" gridtolerance="10" guidetolerance="10" id="namedview14" inkscape:current-layer="svg2" inkscape:cx="952.94991" inkscape:cy="-20.974662" inkscape:pageopacity="0" inkscape:pageshadow="2" inkscape:window-height="706" inkscape:window-maximized="1" inkscape:window-width="1366" inkscape:window-x="-8" inkscape:window-y="-8" inkscape:zoom="2" objecttolerance="10" pagecolor="#ffffff" showgrid="false">
	</sodipodi:namedview>
<g id="g3452">
	<path id="path10" inkscape:connector-curvature="0" class="st0" d="M533.7,99.6c-8.6,0-14.7,2.8-21,5.7V170c6,0.6,9.4,0.6,15.1,0.6
		c20.5,0,23.4-9.4,23.4-22.5v-30.9C551.2,107.4,548,99.6,533.7,99.6z M397.2,96.1c-14.3,0-17.5,7.8-17.5,17.5v5.4h35v-5.4
		C414.7,103.9,411.5,96.1,397.2,96.1z M132.9,163.5c0,7.7,3.6,11.6,11.6,11.6c8.6,0,13.6-2.8,19.9-5.7v-15.4h-18.7
		C136.8,154.1,132.9,155.8,132.9,163.5z M666.4,99.6c-14.3,0-19.2,7.8-19.2,17.5v35.4c0,9.7,4.9,17.5,19.2,17.5
		c14.2,0,19.2-7.8,19.2-17.5v-35.4C685.6,107.4,680.7,99.6,666.4,99.6z M62.9,203.2H21V101.6H0v-35h21v-21C21,17,32.8,0,66.5,0h28
		v35H77c-13.1,0-14,4.9-14,14l-0.1,17.5h31.7l-3.7,35h-28V203.2L62.9,203.2z M206.4,203.4h-35l-1.5-8.8c-16,8.8-30.2,10.3-39.6,10.3
		c-25.7,0-39.3-17.1-39.3-40.8c0-28,15.9-37.9,44.4-37.9h29v-6c0-14.3-1.6-18.5-23.6-18.5h-35.9l3.5-35h39.2
		c48.2,0,58.7,15.2,58.7,53.8L206.4,203.4L206.4,203.4z M325.4,104.1c-21.8-3.7-28-4.5-38.5-4.5c-18.8,0-24.5,4.2-24.5,20.1v30.2
		c0,16,5.7,20.1,24.5,20.1c10.5,0,16.7-0.8,38.5-4.6v34.1c-19.1,4.3-31.5,5.4-42,5.4c-45.1,0-63-23.7-63-57.9v-24.5
		c0-34.3,17.9-58,63-58c10.5,0,22.9,1.1,42,5.4C325.4,70,325.4,104.1,325.4,104.1z M456.7,147.1h-77v2.8c0,16,5.7,20.1,24.5,20.1
		c16.9,0,27.2-0.8,49-4.6v34.1c-21,4.3-31.9,5.4-52.4,5.4c-45.1,0-63-23.7-63-57.9v-28c0-30,13.3-54.5,59.5-54.5
		s59.5,24.3,59.5,54.5L456.7,147.1L456.7,147.1z M593.1,147.8c0,33.1-9.5,57.2-66.7,57.2c-20.7,0-32.8-1.8-55.7-5.3V10.5l42-7v66.2
		c9.1-3.4,20.8-5.1,31.5-5.1c42,0,49,18.8,49,49L593.1,147.8L593.1,147.8z M727.6,148.5c0,28.5-11.8,56.2-61.1,56.2
		c-49.3,0-61.3-27.7-61.3-56.2v-27.6c0-28.6,12-56.2,61.3-56.2c49.3,0,61.1,27.7,61.1,56.2V148.5z M862.1,148.5
		c0,28.5-11.8,56.2-61.1,56.2c-49.3,0-61.3-27.7-61.3-56.2v-27.6c0-28.6,12-56.2,61.3-56.2c49.3,0,61.1,27.7,61.1,56.2V148.5z
		 M1000,203.2h-45.5L916.1,139v64.2h-42V10.5l42-7v124l38.5-61h45.5l-42,66.5L1000,203.2z M800.8,99.6c-14.3,0-19.2,7.8-19.2,17.5
		v35.4c0,9.7,4.9,17.5,19.2,17.5c14.2,0,19.3-7.8,19.3-17.5v-35.4C820.1,107.4,815.1,99.6,800.8,99.6z"/>
</g>
</svg>
