<?xml version="1.0" encoding="utf-8"?>
<!-- Generator: Adobe Illustrator 22.1.0, SVG Export Plug-In . SVG Version: 6.00 Build 0)  -->
<svg version="1.1" id="레이어_1" xmlns="http://www.w3.org/2000/svg" xmlns:xlink="http://www.w3.org/1999/xlink" x="0px"
	 y="0px" viewBox="0 0 228 71" style="enable-background:new 0 0 228 71;" xml:space="preserve">
<style type="text/css">
	.st0{fill:#FFCD00;}
</style>
<g id="kakao_CI_x2F_BI">
	<path id="XMLID_3208_" class="st0" d="M8.5,69.1H0.6V2.7L8.5,1V69.1z M29.6,20.9l6.2,4.5L20.6,44.4l17.6,21.1l-6.1,4.7L11.3,44.9
		L29.6,20.9z"/>
	<path id="XMLID_3205_" class="st0" d="M45.2,56.5c0-4.8,1.6-8.4,4.8-10.9c3.2-2.5,7.8-3.7,13.9-3.7H73v-3c0-7.3-3.2-10.9-9.6-10.9
		c-2.1,0-4.2,0.3-6.5,0.9c-2.3,0.6-4.3,1.3-6.2,2.1l-2.3-5.6c2.3-1.3,4.9-2.3,7.6-3.1c2.7-0.7,5.4-1.1,7.9-1.1
		c11.1,0,16.7,5.9,16.7,17.8v30.1h-5.8L73.7,64c-2.3,1.9-4.9,3.4-7.5,4.4c-2.7,1-5.2,1.5-7.6,1.5c-4.2,0-7.5-1.2-9.8-3.6
		C46.4,63.9,45.2,60.7,45.2,56.5z M60,63.5c1.1,0,2.2-0.1,3.4-0.4c1.2-0.3,2.3-0.7,3.5-1.1c1.2-0.5,2.3-1,3.3-1.7
		c1-0.7,1.9-1.4,2.7-2.1v-11h-8.2c-4.2,0-7.2,0.7-9.1,2.1c-1.9,1.4-2.9,3.7-2.9,6.8C52.8,61.1,55.2,63.5,60,63.5z"/>
	<path id="XMLID_1359_" class="st0" d="M102.5,69.1h-7.9V2.7l7.9-1.7V69.1z M123.6,20.9l6.2,4.5l-15.2,19.1l17.6,21.1l-6.1,4.7
		l-20.8-25.4L123.6,20.9z"/>
	<path id="XMLID_1317_" class="st0" d="M139.2,56.5c0-4.8,1.6-8.4,4.8-10.9c3.2-2.5,7.8-3.7,13.9-3.7h9.1v-3
		c0-7.3-3.2-10.9-9.6-10.9c-2.1,0-4.2,0.3-6.5,0.9c-2.3,0.6-4.3,1.3-6.2,2.1l-2.3-5.6c2.3-1.3,4.9-2.3,7.6-3.1
		c2.7-0.7,5.4-1.1,8-1.1c11.1,0,16.7,5.9,16.7,17.8v30.1h-5.8l-0.9-5.2c-2.3,1.9-4.9,3.4-7.5,4.4c-2.7,1-5.2,1.5-7.6,1.5
		c-4.2,0-7.5-1.2-9.8-3.6C140.4,63.9,139.2,60.7,139.2,56.5z M154.1,63.5c1.1,0,2.2-0.1,3.4-0.4c1.2-0.3,2.3-0.7,3.5-1.1
		c1.2-0.5,2.3-1,3.3-1.7c1-0.7,1.9-1.4,2.7-2.1v-11h-8.2c-4.2,0-7.2,0.7-9.1,2.1c-1.9,1.4-2.9,3.7-2.9,6.8
		C146.8,61.1,149.2,63.5,154.1,63.5z"/>
	<path id="XMLID_1265_" class="st0" d="M206.4,21.3c6.5,0,11.7,2.1,15.4,6.4c3.7,4.2,5.6,10.3,5.6,18.2c0,7.8-1.8,13.8-5.5,18
		c-3.7,4.2-8.8,6.3-15.4,6.3c-6.5,0-11.7-2.1-15.4-6.3c-3.7-4.2-5.6-10.2-5.6-18c0-7.9,1.9-14,5.6-18.2
		C194.8,23.5,199.9,21.3,206.4,21.3z M206.4,27.7c-4.1,0-7.3,1.5-9.5,4.6c-2.2,3.1-3.3,7.6-3.3,13.6c0,5.9,1.1,10.4,3.3,13.4
		c2.2,3,5.4,4.5,9.5,4.5c4.2,0,7.4-1.5,9.6-4.5c2.2-3,3.3-7.5,3.3-13.4c0-6-1.1-10.5-3.3-13.6C213.7,29.2,210.5,27.7,206.4,27.7z"/>
</g>
</svg>
