<?xml version="1.0" encoding="utf-8"?>
<!-- Generator: Adobe Illustrator 22.1.0, SVG Export Plug-In . SVG Version: 6.00 Build 0)  -->
<svg version="1.1" id="레이어_1" xmlns="http://www.w3.org/2000/svg" xmlns:xlink="http://www.w3.org/1999/xlink" x="0px"
	 y="0px" viewBox="0 0 174 33" style="enable-background:new 0 0 174 33;" xml:space="preserve">
<style type="text/css">
	.st0{fill:#00C73C;}
</style>
<g id="XMLID_1297_">
	<g id="XMLID_1298_">
		<g id="XMLID_1299_">
			<polygon id="XMLID_1309_" class="st0" points="24.1,0.6 24.1,16.7 13.1,0.6 1.2,0.6 1.2,32.5 13.1,32.5 13.1,16.4 24.1,32.5 
				36,32.5 36,0.6 			"/>
			<path id="XMLID_1306_" class="st0" d="M163.3,20.6c4.2-1.2,6.9-4.2,6.9-9.1c0-8.2-6.5-10.8-15.1-10.8c-4.2,0-14.8,0-14.8,0v31.9
				h11.9v-10l7.1,10h13.6L163.3,20.6z M157.5,14.1c-0.7,0.6-2,0.8-3.1,0.8h-2.5V8.6h2.5c1.2,0,2.6,0.3,3.2,0.9c0.7,0.6,1,1.4,1,2.3
				C158.5,12.8,158.2,13.5,157.5,14.1z"/>
			<path id="XMLID_1304_" class="st0" d="M111.4,0.6h24.1v8.3h-12.3v3.7h11.3v7.8h-11.3v3.7h12.7v8.3h-24.4V0.6z"/>
			<path id="XMLID_1301_" class="st0" d="M64.6,0.6H51L38.6,32.5h13.2l1.2-4.2h9.8l1.2,4.2h13.2L64.6,0.6z M54.9,21l2.8-10.5H58
				L60.8,21H54.9z"/>
			<polygon id="XMLID_1300_" class="st0" points="95.9,0.6 90.1,19.8 89.8,19.8 83.9,0.6 71,0.6 84.3,32.5 95.5,32.5 108.9,0.6 			
				"/>
		</g>
	</g>
</g>
</svg>
