<?xml version="1.0" encoding="utf-8"?>
<!-- Generator: Adobe Illustrator 23.0.4, SVG Export Plug-In . SVG Version: 6.00 Build 0)  -->
<svg version="1.1" id="레이어_1" xmlns="http://www.w3.org/2000/svg" xmlns:xlink="http://www.w3.org/1999/xlink" x="0px"
	 y="0px" viewBox="0 0 101 101" style="enable-background:new 0 0 101 101;" xml:space="preserve">
<style type="text/css">
	.st0{fill:#D91C84;}
</style>
<path class="st0" d="M95.2,35.1C95.1,35.1,95.1,35.1,95.2,35.1H64.9L55.6,6.4c-0.6-1.6-1.8-2.9-3.5-3.5c-2.8-0.9-5.9,0.7-6.8,3.5
	l-9.3,28.7h-30c-1.8-0.1-3.7,0.7-4.6,2.2c-1.8,2.4-1.2,5.7,1.2,7.5l24.4,17.6l-9.4,28.7c-0.3,1.6-0.3,2.9,0.4,4.3
	c0.6,1.3,1.8,2.2,3.1,2.6c0.6,0.1,1.2,0.3,1.8,0.3c1.2,0,2.2-0.3,3.2-1l24.4-17.8l24.3,17.6c1.5,1.2,3.2,1.5,5,0.9
	c1.3-0.4,2.5-1.3,3.1-2.6c0.6-1.3,0.7-2.6,0.3-4.1l-9.4-28.7l24.4-17.8c1.3-1,2.2-2.6,2.2-4.4C100.5,37.5,98,35.1,95.2,35.1z"/>
</svg>
