<?xml version="1.0" encoding="utf-8"?>
<!-- Generator: Adobe Illustrator 23.0.4, SVG Export Plug-In . SVG Version: 6.00 Build 0)  -->
<svg version="1.1" id="레이어_1" xmlns="http://www.w3.org/2000/svg" xmlns:xlink="http://www.w3.org/1999/xlink" x="0px"
	 y="0px" viewBox="0 0 144 144" style="enable-background:new 0 0 144 144;" xml:space="preserve">
<style type="text/css">
	.st0{fill-opacity:0;}
	.st1{fill:#D91C84;}
	.st2{fill:#333333;}
	.st3{fill-rule:evenodd;clip-rule:evenodd;fill:#E5E5E5;}
	.st4{fill:#FFFFFF;}
	.st5{fill-rule:evenodd;clip-rule:evenodd;fill:#FFFFFF;}
</style>
<title>메인_icon/여행자보험</title>
<desc>Created with Sketch.</desc>
<g>
	<rect id="icon-size" class="st0" width="144" height="144"/>
	<g id="ic_travelinsurance" transform="translate(17.000000, 25.000000)">
		<g id="여행상자">
			<path id="形状" class="st1" d="M60,33.3H37.8c-1.2,0-2.2-1-2.2-2.2V2.2c0-1.2,1-2.2,2.2-2.2H60c1.2,0,2.2,1,2.2,2.2v28.9
				C62.2,32.4,61.2,33.3,60,33.3z M40,28.9h17.8V4.4H40V28.9L40,28.9z"/>
			<path id="路径" class="st2" d="M87.5,86.3H10.4C4.6,86.3,0,81.6,0,75.9V24.2c0-5.8,4.7-10.6,10.6-10.6h76.9
				c5.7,0,10.4,4.6,10.4,10.4v51.9C97.8,81.6,93.2,86.3,87.5,86.3z"/>
			<path id="矩形" class="st3" d="M43.6,19.8h10.9c0.5,0,1,0.4,1,1v1c0,0.5-0.4,1-1,1H43.6c-0.5,0-1-0.4-1-1v-1
				C42.6,20.3,43.1,19.8,43.6,19.8z"/>
			<path class="st4" d="M18.8,13.7h9.9v72.6h-9.9V13.7z M69.3,13.7h9.9v72.6h-9.9V13.7z"/>
		</g>
		<g id="ic_방패" transform="translate(70.642202, 48.431193)">
			<path class="st1" d="M19.7,44.1c0,0-19.2-6.5-19.2-18V6.7L19.7,0l19.2,6.7v19.4C38.9,37.6,19.7,44.1,19.7,44.1z"/>
			<path id="形状结合" class="st5" d="M21.1,14.2c0.4,0,0.7,0.3,0.7,0.7l0,3.6l3.6,0c0.4,0,0.7,0.3,0.7,0.7v2.8
				c0,0.4-0.3,0.7-0.7,0.7l-3.6,0l0,3.6c0,0.4-0.3,0.7-0.7,0.7h-2.8c-0.4,0-0.7-0.3-0.7-0.7l0-3.6l-3.6,0c-0.4,0-0.7-0.3-0.7-0.7
				v-2.8c0-0.4,0.3-0.7,0.7-0.7l3.6,0l0-3.6c0-0.4,0.3-0.7,0.7-0.7H21.1z"/>
		</g>
	</g>
</g>
</svg>
