<?xml version="1.0" encoding="UTF-8"?>
<svg width="135px" height="40px" viewBox="0 0 135 40" version="1.1" xmlns="http://www.w3.org/2000/svg" xmlns:xlink="http://www.w3.org/1999/xlink">
    <!-- Generator: Sketch 64 (93537) - https://sketch.com -->
    <title>Group 12</title>
    <desc>Created with Sketch.</desc>
    <g id="Main" stroke="none" stroke-width="1" fill="none" fill-rule="evenodd">
        <g id="200403_Mobile_메인" transform="translate(-120.000000, -3410.000000)" fill-rule="nonzero">
            <g id="Group-12" transform="translate(120.000000, 3410.000000)">
                <path d="M110.13477,1.77635684e-13 L9.53468,1.77635684e-13 C9.16798,1.77635684e-13 8.80568,1.77635684e-13 8.43995,0.00213 C8.1338,0.00413 7.83009,0.00994 7.521,0.01483 C6.84951368,0.0227318036 6.17960647,0.0818062599 5.5171,0.19154 C4.85552408,0.303662628 4.21467252,0.51504574 3.61622,0.81854 C3.01849941,1.12460171 2.47234502,1.52229753 1.99757,1.9972 C1.5203025,2.47076699 1.12246318,3.01814638 0.81935,3.61829 C0.515400242,4.21723912 0.304640498,4.8590683 0.19435,5.52161 C0.0830109412,6.18331491 0.0230983806,6.85265054 0.01515,7.52361 C0.00587,7.83021 0.00489,8.13783 3.62376795e-13,8.44447 L3.62376795e-13,31.55873 C0.00489,31.86923 0.00587,32.17003 0.01515,32.48063 C0.023100818,33.1515562 0.0830133796,33.8208584 0.19435,34.48253 C0.304335953,35.145459 0.515108158,35.7876566 0.81935,36.38683 C1.12232555,36.9850329 1.52022081,37.5301962 1.99757,38.00113 C2.47054482,38.478144 3.01705224,38.8761104 3.61622,39.17983 C4.21466797,39.4841365 4.85545044,39.6967778 5.5171,39.81063 C6.1797191,39.9194847 6.84955741,39.9785832 7.521,39.98743 C7.83009,39.99423 8.1338,39.99813 8.43995,39.99813 C8.80567,40.00013 9.168,40.00013 9.53468,40.00013 L110.13477,40.00013 C110.49417,40.00013 110.85937,40.00013 111.21877,39.99813 C111.52347,39.99813 111.83597,39.99423 112.14067,39.98743 C112.810843,39.9790537 113.47942,39.9199515 114.14067,39.81063 C114.804454,39.6959764 115.447534,39.4833914 116.04887,39.17983 C116.647497,38.8759346 117.1935,38.4779791 117.66607,38.00113 C118.142188,37.5283518 118.540932,36.9835873 118.84767,36.38683 C119.149629,35.7872208 119.358395,35.1450745 119.46677,34.48253 C119.578285,33.8207676 119.640323,33.1516143 119.65237,32.48063 C119.65627,32.17003 119.65627,31.86923 119.65627,31.55873 C119.66407,31.19543 119.66407,30.83413 119.66407,30.46493 L119.66407,9.53626 C119.66407,9.17005 119.66407,8.80677 119.65627,8.44447 C119.65627,8.13783 119.65627,7.83021 119.65237,7.52357 C119.640326,6.85255244 119.578287,6.18336567 119.46677,5.52157 C119.358093,4.8594116 119.149339,4.21763328 118.84767,3.61825 C118.230394,2.41532608 117.251573,1.4361554 116.04887,0.81845 C115.447532,0.51569738 114.804383,0.30437041 114.14067,0.19145 C113.479535,0.0812327831 112.810888,0.0221377649 112.14067,0.01469 C111.83597,0.00981 111.52347,0.00395 111.21877,0.002 C110.85937,1.77635684e-13 110.49417,1.77635684e-13 110.13477,1.77635684e-13 L110.13477,1.77635684e-13 Z" id="Path"></path>
                <path d="M130,40.00013 L5,40.00013 C2.25,40.00013 0,37.75013 0,35.00013 L0,5.00013 C0,2.25013 2.25,0.00013 5,0.00013 L130,0.00013 C132.75,0.00013 135,2.25013 135,5.00013 L135,35.00013 C135,37.75013 132.75,40.00013 130,40.00013 Z" id="Path-Copy" fill="#000000"></path>
                <path d="M130,0.80013 C132.32,0.80013 134.2,2.68013 134.2,5.00013 L134.2,35.00013 C134.2,37.32013 132.32,39.20013 130,39.20013 L5,39.20013 C2.68,39.20013 0.8,37.32013 0.8,35.00013 L0.8,5.00013 C0.8,2.68013 2.68,0.80013 5,0.80013 L130,0.80013 M130,0.00013 L5,0.00013 C2.25,0.00013 0,2.25013 0,5.00013 L0,35.00013 C0,37.75013 2.25,40.00013 5,40.00013 L130,40.00013 C132.75,40.00013 135,37.75013 135,35.00013 L135,5.00013 C135,2.25013 132.75,0.00013 130,0.00013 L130,0.00013 Z" id="Shape-Copy" fill="#A6A6A6"></path>
                <g id="Group-8" transform="translate(11.000000, 6.000130)" fill="#FFFFFF">
                    <g id="_Group_">
                        <g id="_Group_2">
                            <g id="_Group_3">
                                <path d="M17.3301552,13.5185691 C17.3541763,11.6541308 18.3316202,9.93195701 19.920038,8.95541406 C18.9134248,7.51779126 17.2878566,6.63898512 15.5337137,6.58410238 C13.6882123,6.39039089 11.8990791,7.6884205 10.9586453,7.6884205 C10.000012,7.6884205 8.55206644,6.60333505 6.99286812,6.63541515 C4.9413697,6.7016947 3.07518046,7.83981513 2.07708475,9.63337129 C-0.048400396,13.313318 1.5370203,18.7216007 3.57305703,21.6961919 C4.59172931,23.1527647 5.78226475,24.7797939 7.34005634,24.7220958 C8.86444901,24.6588698 9.4337801,23.7500436 11.2738524,23.7500436 C13.096846,23.7500436 13.6309978,24.7220958 15.2203969,24.6854109 C16.8561413,24.6588588 17.8867378,23.222365 18.8696703,21.7519996 C19.6015847,20.7141383 20.1647916,19.5670755 20.5384289,18.3533005 C18.5956614,17.5316052 17.3324228,15.6279585 17.3301552,13.5185691 L17.3301552,13.5185691 Z" id="_Path_"></path>
                                <path d="M14.3280668,4.6278098 C15.2199426,3.55714546 15.6593359,2.18098785 15.5529353,0.791583861 C14.1903475,0.934697466 12.931698,1.58592588 12.0277732,2.61551168 C11.1351889,3.63133645 10.6830078,4.9603072 10.7708246,6.30971257 C12.1516831,6.32393021 13.4627791,5.70402977 14.3280668,4.6278098 L14.3280668,4.6278098 Z" id="_Path_2"></path>
                            </g>
                        </g>
                        <g id="Group" transform="translate(27.475248, 9.891089)">
                            <path d="M9.12427693,11.1435757 L3.92222347,11.1435757 L2.67295693,14.8323475 L0.46957396,14.8323475 L5.39687495,1.18484257 L7.68611257,1.18484257 L12.6134136,14.8323475 L10.3724554,14.8323475 L9.12427693,11.1435757 Z M4.46099109,9.44139624 L8.58447624,9.44139624 L6.55173653,3.45479257 L6.49485178,3.45479257 L4.46099109,9.44139624 Z" id="Shape"></path>
                            <path d="M23.2547088,9.85782208 C23.2547088,12.9498645 21.5997538,14.9364457 19.1022977,14.9364457 C17.8113845,15.003974 16.5954148,14.3278258 15.9716251,13.1956141 L15.9243677,13.1956141 L15.9243677,18.1239921 L13.8819677,18.1239921 L13.8819677,4.8822196 L15.8589327,4.8822196 L15.8589327,6.53717465 L15.8964968,6.53717465 C16.547999,5.41206098 17.7652799,4.73620387 19.0647336,4.7781104 C21.5900495,4.77812139 23.2547088,6.77436297 23.2547088,9.85782208 Z M21.1554241,9.85782208 C21.1554241,7.84333693 20.114365,6.51893109 18.525955,6.51893109 C16.9654488,6.51893109 15.9158064,7.8712298 15.9158064,9.85782208 C15.9158064,11.8626579 16.9654488,13.2052963 18.525955,13.2052963 C20.1143759,13.2052963 21.1554241,11.8905618 21.1554241,9.85782208 Z" id="Shape"></path>
                            <path d="M34.2061666,9.85782208 C34.2061666,12.9498645 32.5512116,14.9364457 30.0537555,14.9364457 C28.7628423,15.003974 27.5468726,14.3278258 26.923083,13.1956141 L26.8758255,13.1956141 L26.8758255,18.1239921 L24.8334255,18.1239921 L24.8334255,4.8822196 L26.8103465,4.8822196 L26.8103465,6.53717465 L26.8479107,6.53717465 C27.4994176,5.41206166 28.7167032,4.73620853 30.0161584,4.77812139 C32.5415513,4.77812139 34.2061666,6.77436297 34.2061666,9.85782208 Z M32.1068929,9.85782208 C32.1068929,7.84333693 31.0658228,6.51893109 29.4774128,6.51893109 C27.9169066,6.51893109 26.8672643,7.8712298 26.8672643,9.85782208 C26.8672643,11.8626579 27.9169066,13.2052963 29.4774128,13.2052963 C31.0658338,13.2052963 32.1068929,11.8905618 32.1068929,9.85782208 L32.1068929,9.85782208 Z" id="Shape"></path>
                            <path d="M41.4441799,11.0298062 C41.5955136,12.383182 42.9102591,13.2717864 44.7068655,13.2717864 C46.4283656,13.2717864 47.6668949,12.383138 47.6668949,11.1628414 C47.6668949,10.1035387 46.9199088,9.46926713 45.1511952,9.03458673 L43.3824817,8.60850059 C40.8764424,8.00318792 39.7130305,6.83119277 39.7130305,4.92938911 C39.7130305,2.57467248 41.7650908,0.957281584 44.6789617,0.957281584 C47.5627637,0.957281584 49.5397176,2.57467248 49.6062627,4.92938911 L47.5445201,4.92938911 C47.4211013,3.5674301 46.2952536,2.74532673 44.6499588,2.74532673 C43.0046641,2.74532673 41.8788273,3.57710139 41.8788273,4.78772673 C41.8788273,5.7525805 42.5979095,6.32032901 44.3569628,6.75495446 L45.8605842,7.12415584 C48.6606965,7.78635327 49.8241084,8.91114594 49.8241084,10.9073655 C49.8241084,13.4606293 47.7902917,15.0597766 44.5555099,15.0597766 C41.5289355,15.0597766 39.4854695,13.4981935 39.3534564,11.0297073 L41.4441799,11.0298062 Z" id="Path"></path>
                            <path d="M54.2319734,2.52750297 L54.2319734,4.8822196 L56.1241167,4.8822196 L56.1241167,6.4996105 L54.2319734,6.4996105 L54.2319734,11.9849997 C54.2319734,12.837161 54.610835,13.2342662 55.4425987,13.2342662 C55.6672269,13.2303493 55.8914917,13.2145749 56.1144564,13.1870088 L56.1144564,14.7947394 C55.7404945,14.864614 55.3603937,14.8962599 54.9800254,14.8891883 C52.9655403,14.8891883 52.1799131,14.132542 52.1799131,12.2028345 L52.1799131,6.4996105 L50.7331764,6.4996105 L50.7331764,4.8822196 L52.1798911,4.8822196 L52.1798911,2.52750297 L54.2319734,2.52750297 Z" id="Path"></path>
                            <path d="M57.2199505,9.85782208 C57.2199505,6.7271495 59.0637924,4.75987782 61.9390441,4.75987782 C64.823945,4.75987782 66.6592037,6.72710554 66.6592037,9.85782208 C66.6592037,12.9970889 64.8336053,14.9557663 61.9390441,14.9557663 C59.0455049,14.9557663 57.2199505,12.9970779 57.2199505,9.85782208 Z M64.5781625,9.85782208 C64.5781625,7.71024683 63.5939881,6.44273673 61.9390331,6.44273673 C60.284078,6.44273673 59.3009807,7.71990713 59.3009807,9.85782208 C59.3009807,12.0139806 60.284078,13.2718414 61.9390331,13.2718414 C63.5939881,13.2718414 64.5781625,12.0139806 64.5781625,9.85782208 L64.5781625,9.85782208 Z" id="Shape"></path>
                            <path d="M68.3430847,4.8822196 L70.2910467,4.8822196 L70.2910467,6.57579386 L70.3383042,6.57579386 C70.6099531,5.4855633 71.6089053,4.73522874 72.731651,4.77809941 C72.9670194,4.7772776 73.2017384,4.80283894 73.4314126,4.85430475 L73.4314126,6.76469168 C73.1342743,6.67389513 72.8243081,6.63220746 72.5137393,6.64127287 C71.9132933,6.6169138 71.3321948,6.85621144 70.923023,7.2963333 C70.5138512,7.73645516 70.3174851,8.33343022 70.3854847,8.9305105 L70.3854847,14.8323255 L68.3430847,14.8323255 L68.3430847,4.8822196 Z" id="Path"></path>
                            <path d="M82.8480921,11.9098714 C82.5733396,13.7161491 80.8142753,14.9557553 78.5636679,14.9557553 C75.6691066,14.9557553 73.8724892,13.0163875 73.8724892,9.90503554 C73.8724892,6.78402327 75.6787669,4.75986683 78.4778133,4.75986683 C81.2307012,4.75986683 82.9618616,6.65093317 82.9618616,9.66784723 L82.9618616,10.3676088 L75.9342098,10.3676088 L75.9342098,10.4910276 C75.8685961,11.2317951 76.1243842,11.9650521 76.63651,12.5042818 C77.1486358,13.0435115 77.8677391,13.3367415 78.6109034,13.3093836 C79.6020369,13.4022495 80.536482,12.8331141 80.9087352,11.9098604 L82.8480921,11.9098714 Z M75.9438507,8.94019277 L80.9183846,8.94019277 C80.9554492,8.27455269 80.7131516,7.62363725 80.2498679,7.14425843 C79.7865841,6.66487962 79.1443197,6.40050223 78.4778133,6.41482188 C77.8060344,6.41081294 77.1604858,6.67531429 76.6846528,7.14953555 C76.2088198,7.6237568 75.9421296,8.2684042 75.9438507,8.94019277 L75.9438507,8.94019277 Z" id="Shape"></path>
                        </g>
                    </g>
                    <g id="_Group_4" transform="translate(28.574257, 0.000000)">
                        <g id="Group">
                            <path d="M3.10601079,0.803376238 C3.97307087,0.741154892 4.82233704,1.07103727 5.42005449,1.70222546 C6.01777193,2.33341365 6.30093794,3.19937695 6.19161297,4.06176475 C6.19161297,6.15675238 5.05933604,7.36099248 3.10601079,7.36099248 L0.737347723,7.36099248 L0.737347723,0.803376238 L3.10601079,0.803376238 Z M1.75585515,6.43360396 L2.99224129,6.43360396 C3.61188719,6.4706428 4.21523766,6.22650544 4.6347649,5.76897969 C5.05429214,5.31145394 5.24533205,4.68924931 5.15484,4.07512871 C5.23874832,3.46355667 5.04495723,2.84648644 4.62647019,2.3926918 C4.20798315,1.93889717 3.60859425,1.69586712 2.99224129,1.73007238 L1.75585515,1.73007238 L1.75585515,6.43360396 Z" id="Shape"></path>
                            <path d="M7.34213347,4.88437366 C7.25727575,3.99734634 7.68261076,3.13889529 8.43975414,2.66905255 C9.19689752,2.19920981 10.1549414,2.19920981 10.9120848,2.66905255 C11.6692282,3.13889529 12.0945632,3.99734634 12.0097054,4.88437366 C12.0961777,5.77235417 11.6712309,6.63247022 10.9134162,7.10332444 C10.1556015,7.57417866 9.19623743,7.57417866 8.43842272,7.10332444 C7.68060801,6.63247022 7.25566123,5.77235417 7.34213347,4.88437366 Z M11.0051445,4.88437366 C11.0051445,3.81166307 10.5232396,3.18434822 9.6775295,3.18434822 C8.82858832,3.18434822 8.35102455,3.81166307 8.35102455,4.88438465 C8.35102455,5.9656895 8.82862129,6.58816871 9.6775295,6.58816871 C10.5232616,6.58816871 11.0051445,5.96138139 11.0051445,4.88437366 L11.0051445,4.88437366 Z" id="Shape"></path>
                            <polygon id="Path" points="18.2141768 7.36089356 17.2010326 7.36089356 16.178228 3.71612614 16.1009566 3.71612614 15.0824382 7.36089356 14.0789433 7.36089356 12.7148412 2.41212891 13.7054557 2.41212891 14.5919611 6.18832693 14.6649463 6.18832693 15.6823877 2.41212891 16.6193376 2.41212891 17.636779 6.18832693 17.7140504 6.18832693 18.5962586 2.41212891 19.5729157 2.41212891"></polygon>
                            <path d="M20.7202161,2.41212891 L21.6603861,2.41212891 L21.6603861,3.19828366 L21.7333714,3.19828366 C21.9871711,2.61946585 22.5802276,2.26539732 23.2101659,2.31660297 C23.697925,2.27993096 24.1758944,2.46704633 24.5091196,2.82511713 C24.8423448,3.18318792 24.9946647,3.67335681 24.9230718,4.15722475 L24.9230718,7.36083861 L23.9464147,7.36083861 L23.9464147,4.4024798 C23.9464147,3.60720327 23.600831,3.21170257 22.8785287,3.21170257 C22.5476892,3.19629349 22.2266182,3.32613431 21.9994907,3.56718478 C21.7723632,3.80823525 21.6618314,4.13645458 21.6968733,4.46579376 L21.6968733,7.36089356 L20.7202161,7.36089356 L20.7202161,2.41212891 Z" id="Path"></path>
                            <polygon id="Path" points="26.4792918 0.480267327 27.4559489 0.480267327 27.4559489 7.36088257 26.4792918 7.36088257"></polygon>
                            <path d="M28.8136108,4.88437366 C28.7288183,3.99728831 29.1542203,3.13881554 29.9114199,2.66896555 C30.6686195,2.19911556 31.6267126,2.19911556 32.3839122,2.66896555 C33.1411117,3.13881554 33.5665138,3.99728831 33.4817213,4.88437366 C33.5680837,5.77238596 33.1430591,6.6324777 32.3852067,7.10331118 C31.6273544,7.57414466 30.6679777,7.57414466 29.9101253,7.10331118 C29.152273,6.6324777 28.7272484,5.77238596 28.8136108,4.88437366 L28.8136108,4.88437366 Z M32.4766218,4.88437366 C32.4766218,3.81166307 31.9947169,3.18434822 31.1490068,3.18434822 C30.3000656,3.18434822 29.8225019,3.81166307 29.8225019,4.88438465 C29.8225019,5.9656895 30.3000986,6.58816871 31.1490068,6.58816871 C31.9947279,6.58816871 32.4766218,5.96138139 32.4766218,4.88437366 L32.4766218,4.88437366 Z" id="Shape"></path>
                            <path d="M34.5099,5.96138139 C34.5099,5.07057891 35.1731745,4.55703356 36.3505218,4.48404832 L37.6910171,4.40677693 L37.6910171,3.97962475 C37.6910171,3.45694663 37.3454335,3.16180752 36.6778729,3.16180752 C36.132665,3.16180752 35.7548804,3.3619702 35.6464741,3.71185099 L34.7009409,3.71185099 C34.800753,2.86183277 35.6003266,2.31662495 36.7229433,2.31662495 C37.9636265,2.31662495 38.6633881,2.93426851 38.6633881,3.97962475 L38.6633881,7.36090455 L37.7232181,7.36090455 L37.7232181,6.6654401 L37.6459467,6.6654401 C37.3266279,7.17332152 36.758775,7.47014969 36.1594919,7.4424401 C35.7393801,7.48613873 35.3203881,7.35008003 35.0060984,7.06790021 C34.6918086,6.78572039 34.5115552,6.38375651 34.5099,5.96138139 L34.5099,5.96138139 Z M37.6910171,5.53851535 L37.6910171,5.12478208 L36.4825349,5.20205347 C35.8010168,5.24766238 35.4919203,5.47948752 35.4919203,5.91576149 C35.4919203,6.36115723 35.8782882,6.62034772 36.4095936,6.62034772 C36.7241149,6.65218589 37.0380914,6.55501714 37.2796472,6.35108545 C37.5212029,6.14715376 37.6696541,5.85392136 37.6910171,5.53851535 Z" id="Shape"></path>
                            <path d="M39.9469877,4.88437366 C39.9469877,3.32064743 40.7508585,2.33003287 42.0011911,2.33003287 C42.6325468,2.30094223 43.2238699,2.63924246 43.5187699,3.19825069 L43.5917551,3.19825069 L43.5917551,0.480267327 L44.5684123,0.480267327 L44.5684123,7.36088257 L43.6325394,7.36088257 L43.6325394,6.57901396 L43.555268,6.57901396 C43.2380764,7.13338421 42.639468,7.46596603 42.0012021,7.4424401 C40.7422752,7.44249505 39.9469877,6.45185851 39.9469877,4.88437366 Z M40.9558788,4.88437366 C40.9558788,5.93401604 41.4506531,6.56562802 42.2781306,6.56562802 C43.101289,6.56562802 43.6100317,5.92490525 43.6100317,4.88867079 C43.6100317,3.85727198 43.0959478,3.20741644 42.2781306,3.20741644 C41.4559833,3.20741644 40.9558458,3.84331455 40.9558458,4.88437366 L40.9558788,4.88437366 Z" id="Shape"></path>
                            <path d="M48.6092079,4.88437366 C48.5243502,3.99734634 48.9496852,3.13889529 49.7068286,2.66905255 C50.463972,2.19920981 51.4220158,2.19920981 52.1791592,2.66905255 C52.9363026,3.13889529 53.3616376,3.99734634 53.2767799,4.88437366 C53.3632521,5.77235417 52.9383054,6.63247022 52.1804906,7.10332444 C51.4226759,7.57417866 50.4633119,7.57417866 49.7054972,7.10332444 C48.9476825,6.63247022 48.5227357,5.77235417 48.6092079,4.88437366 L48.6092079,4.88437366 Z M52.2722079,4.88437366 C52.2722079,3.81166307 51.7903141,3.18434822 50.944604,3.18434822 C50.0956628,3.18434822 49.618099,3.81166307 49.618099,4.88438465 C49.618099,5.9656895 50.0956957,6.58816871 50.944604,6.58816871 C51.790325,6.58816871 52.2722079,5.96138139 52.2722079,4.88437366 Z" id="Shape"></path>
                            <path d="M54.5872173,2.41212891 L55.5273873,2.41212891 L55.5273873,3.19828366 L55.6003726,3.19828366 C55.8541723,2.61946585 56.4472288,2.26539732 57.0771671,2.31660297 C57.5649262,2.27993096 58.0428956,2.46704633 58.3761208,2.82511713 C58.709346,3.18318792 58.8616658,3.67335681 58.790073,4.15722475 L58.790073,7.36083861 L57.8134158,7.36083861 L57.8134158,4.4024798 C57.8134158,3.60720327 57.4678322,3.21170257 56.7455299,3.21170257 C56.4146904,3.19629349 56.0936194,3.32613431 55.8664919,3.56718478 C55.6393644,3.80823525 55.5288326,4.13645458 55.5638745,4.46579376 L55.5638745,7.36089356 L54.5872173,7.36089356 L54.5872173,2.41212891 Z" id="Path"></path>
                            <path d="M64.3087402,1.1800399 L64.3087402,2.4346696 L65.3809233,2.4346696 L65.3809233,3.25732248 L64.3087402,3.25732248 L64.3087402,5.80200297 C64.3087402,6.32038396 64.5223218,6.54737347 65.0085018,6.54737347 C65.1329708,6.54697512 65.2573148,6.53944923 65.3809233,6.52483277 L65.3809233,7.33835287 C65.2055317,7.36973039 65.0278286,7.38642361 64.8496619,7.38825891 C63.7635324,7.38825891 63.331006,7.00617713 63.331006,6.05206069 L63.331006,3.25727851 L62.5453898,3.25727851 L62.5453898,2.43462564 L63.331006,2.43462564 L63.331006,1.1800399 L64.3087402,1.1800399 Z" id="Path"></path>
                            <path d="M66.7149674,0.480267327 L67.6830413,0.480267327 L67.6830413,3.20740545 L67.7603127,3.20740545 C68.0263036,2.62352188 68.6297396,2.26900215 69.2692533,2.3209001 C69.7542426,2.29450988 70.2257417,2.48574468 70.5553248,2.84251641 C70.884908,3.19928815 71.038247,3.68443689 70.9735758,4.16581901 L70.9735758,7.36089356 L69.9959406,7.36089356 L69.9959406,4.40675495 C69.9959406,3.61630307 69.6277723,3.21597772 68.937715,3.21597772 C68.5979329,3.18811086 68.2631746,3.3116366 68.0229346,3.55353147 C67.7826946,3.79542635 67.6614698,4.1310247 67.6916685,4.47060743 L67.6916685,7.36089356 L66.7150114,7.36089356 L66.7149674,0.480267327 Z" id="Path"></path>
                            <path d="M76.6683045,6.02469535 C76.3944389,6.95817181 75.4910988,7.56130136 74.5239493,7.45640851 C73.8640641,7.47382804 73.2298777,7.200307 72.7896548,6.70841706 C72.3494319,6.21652711 72.1476771,5.55599613 72.2379208,4.90207871 C72.1500741,4.24634399 72.3510729,3.5847546 72.7888444,3.08870903 C73.2266159,2.59266346 73.8580834,2.31097247 74.5196522,2.31661396 C75.8966347,2.31661396 76.7273323,3.25736644 76.7273323,4.81136644 L76.7273323,5.15215842 L73.2328215,5.15215842 L73.2328215,5.20688911 C73.2018976,5.57411243 73.3273152,5.93734357 73.5782302,6.20725265 C73.8291452,6.47716173 74.1822758,6.62870451 74.5507761,6.62461188 C75.0285947,6.68197435 75.4937184,6.44496008 75.7281345,6.02466238 L76.6683045,6.02469535 Z M73.2327995,4.42984515 L75.7323986,4.42984515 C75.7572944,4.0939882 75.6392009,3.76323528 75.4072202,3.51909465 C75.1752395,3.27495402 74.850946,3.1401309 74.514256,3.1478501 C74.1730047,3.14356276 73.8444842,3.27727086 73.6032168,3.51864382 C73.3619493,3.76001678 73.2283849,4.08859569 73.2328215,4.42984515 L73.2327995,4.42984515 Z" id="Shape"></path>
                        </g>
                    </g>
                </g>
            </g>
        </g>
    </g>
</svg>