<svg xmlns="http://www.w3.org/2000/svg" width="29" height="18" viewBox="0 0 29 18">
    <g fill="none">
        <path fill="#D91C84" d="M0 4.046C0 1.811 1.77 0 3.955 0h21.09C27.23 0 29 1.81 29 4.046v7.755c0 2.234-1.77 4.046-3.955 4.046H2.307L0 18.207V4.046z"/>
        <path fill="#FFF" d="M9.997 11.86V4.383H8.953v7.477h1.044zM4.58 8.663c.847-.234 1.424-.736 1.748-1.383.325.615.894 1.092 1.732 1.31l.46-.809c-1.069-.283-1.599-.954-1.67-1.667h1.47v-.85H6.841v-.808H5.79v.809H4.326v.85h1.456c-.072.744-.586 1.44-1.67 1.731l.467.817h.001zm-.49 1.805c1.25-.008 2.966-.016 4.532-.34l-.063-.777c-.554.09-1.131.138-1.717.178V8.446H5.79v1.133c-.664.024-1.297.024-1.834.024l.134.866v-.001zm13.224 1.392V4.383H16.27v2.606h-1.281v.866h1.281v4.006h1.044v-.001zm-5.608-1.392c.839-.429 1.408-1.254 1.717-2.258.316.93.878 1.7 1.7 2.112l.601-.841c-1.21-.567-1.787-1.942-1.787-3.253v-.26h1.495v-.865H11.39v.866h1.495v.259c0 1.383-.577 2.816-1.795 3.398l.616.842zm12.473 1.36V8.112h1.02v-.88h-1.02v-2.85h-1.044v7.444h1.044zm-5.188-1.271c2.42-1.254 3.25-3.172 3.25-5.405h-3.432v.865h2.38c-.19 1.651-1.091 2.833-2.784 3.723l.586.817z"/>
    </g>
</svg>
