<?xml version="1.0" encoding="utf-8"?>
<!-- Generator: Adobe Illustrator 23.0.1, SVG Export Plug-In . SVG Version: 6.00 Build 0)  -->
<svg version="1.1" id="Capa_1" xmlns="http://www.w3.org/2000/svg" xmlns:xlink="http://www.w3.org/1999/xlink" x="0px" y="0px"
	 viewBox="0 0 52 52" style="enable-background:new 0 0 52 52;" xml:space="preserve">
<style type="text/css">
	.st0{fill:#333333;}
	.st1{fill:#FFFFFF;}
</style>
<path class="st0" d="M26.1,51L26.1,51c-13.8,0-25-11.2-25-25l0,0c0-13.8,11.2-25,25-25l0,0c13.8,0,25,11.2,25,25l0,0
	C51.1,39.8,39.9,51,26.1,51z"/>
<g>
	<path class="st1" d="M32.8,11H19.4c-4.6,0-8.3,3.7-8.3,8.3v13.4c0,4.6,3.7,8.3,8.3,8.3h13.4c4.6,0,8.3-3.7,8.3-8.3V19.2
		C41.1,14.7,37.4,11,32.8,11z M38.4,32.7c0,3.1-2.5,5.6-5.6,5.6H19.4c-3.1,0-5.6-2.5-5.6-5.6V19.2c0-3.1,2.5-5.6,5.6-5.6h13.4
		c3.1,0,5.6,2.5,5.6,5.6L38.4,32.7L38.4,32.7z"/>
	<path class="st1" d="M26.1,18.2c-4.3,0-7.7,3.5-7.7,7.7c0,4.3,3.5,7.7,7.7,7.7s7.7-3.5,7.7-7.7C33.8,21.7,30.3,18.2,26.1,18.2z
		 M26.1,31c-2.8,0-5.1-2.2-5.1-5s2.3-5.1,5.1-5.1s5.1,2.3,5.1,5.1C31.1,28.8,28.9,31,26.1,31z"/>
	<path class="st1" d="M34.1,16c-0.5,0-1,0.2-1.4,0.6s-0.6,0.9-0.6,1.4s0.2,1,0.6,1.4c0.4,0.4,0.9,0.6,1.4,0.6s1-0.2,1.4-0.6
		s0.6-0.9,0.6-1.4s-0.2-1-0.6-1.4C35.1,16.2,34.6,16,34.1,16z"/>
</g>
</svg>
