<svg xmlns="http://www.w3.org/2000/svg" viewBox="0 0 1003.59 269.76"><defs><style>.cls-1{fill:#fff;}</style></defs><title>waug_logo_white</title><g id="레이어_2" data-name="레이어 2"><g id="레이어_1-2" data-name="레이어 1"><path class="cls-1" d="M142,215.13l-13.58,54.63H67.52L0,0H87.39Zm111.71-.35-14,55h-61L111.63,0h87ZM309.17,0,265.39,171.57,221.4,0Z"/><path class="cls-1" d="M379.29,269.76H277.64l59.49-222.2ZM350.5,0h94.64l51.33,269.76H402.1Z"/><path class="cls-1" d="M606.59,269.76q-52.51,0-72.7-22.51T513.69,172V0h92.9ZM719.67,172q0,53.15-19.46,74.54-20.91,23.25-73.42,23.25V0h92.88Z"/><path class="cls-1" d="M868.32,269.35C798.81,264.26,743.69,206,743.69,134.82S798.81,5.39,868.32.3Zm135.27-152.43V.3H887.79Zm0,29.58C999,209.8,950.21,261,887.84,269.7V146.5Z"/></g></g></svg>