<?xml version="1.0" encoding="utf-8"?>
<!-- Generator: Adobe Illustrator 23.0.4, SVG Export Plug-In . SVG Version: 6.00 Build 0)  -->
<svg version="1.1" id="레이어_1" xmlns="http://www.w3.org/2000/svg" xmlns:xlink="http://www.w3.org/1999/xlink" x="0px"
	 y="0px" viewBox="0 0 101 101" style="enable-background:new 0 0 101 101;" xml:space="preserve">
<style type="text/css">
	.st0{fill:#D91C84;}
	.st1{fill:none;}
</style>
<title>ic_bolt_1</title>
<path class="st0" d="M80.2,40.5c-0.6-0.3-1.3-0.5-2-0.5H55.4l2-34.9c0.1-2.2-1.6-4-3.7-4.2c-1.5-0.1-2.9,0.7-3.6,1.9L19.4,55.1
	c-1.1,1.9-0.4,4.3,1.5,5.4c0.6,0.3,1.3,0.5,2,0.5h22.8l-2,34.9c-0.1,1.1,0.3,2.1,1,2.9s1.7,1.3,2.7,1.3c0.1,0,0.2,0,0.2,0
	c1.4,0,2.7-0.7,3.4-2l30.7-52.3C82.7,44,82.1,41.5,80.2,40.5z"/>
<rect class="st1" width="101" height="101"/>
</svg>
