<?xml version="1.0" encoding="UTF-8"?>
<svg width="16px" height="16px" viewBox="0 0 16 16" version="1.1" xmlns="http://www.w3.org/2000/svg" xmlns:xlink="http://www.w3.org/1999/xlink">
    <!-- Generator: Sketch 61.2 (89653) - https://sketch.com -->
    <title>btn_cancel</title>
    <desc>Created with Sketch.</desc>
    <g id="页面-1" stroke="none" stroke-width="1" fill="none" fill-rule="evenodd">
        <g id="04_device-banners-copy" transform="translate(-409.000000, -372.000000)">
            <g id="영문" transform="translate(70.000000, 350.000000)">
                <g id="btn_cancel" transform="translate(339.000000, 22.000000)">
                    <g id="cancel">
                        <rect id="矩形" fill="#000000" fill-rule="nonzero" opacity="0" x="0" y="0" width="16" height="16"></rect>
                        <path d="M8.63333333,8 L15.2,1.4 C15.3666667,1.23333333 15.3666667,0.966666672 15.2,0.8 C15.0333333,0.633333328 14.7666667,0.633333328 14.6,0.8 L8.03333333,7.4 L1.43333333,0.8 C1.26666666,0.633333328 1,0.633333328 0.833333328,0.8 C0.666666656,0.966666672 0.666666656,1.23333333 0.833333328,1.4 L7.43333333,8 L0.833333328,14.6 C0.666666656,14.7666667 0.666666656,15 0.833333328,15.2 C0.933333328,15.2666667 1.03333333,15.3333333 1.13333333,15.3333333 C1.23333333,15.3333333 1.36666666,15.3 1.43333333,15.2 L8.03333333,8.6 L14.6333333,15.2 C14.7333333,15.3 14.8333333,15.3333333 14.9333333,15.3333333 C15.0333333,15.3333333 15.1666667,15.3 15.2333333,15.2 C15.4,15.0333333 15.4,14.7666667 15.2333333,14.6 L8.63333333,8 Z" id="路径" fill="#FFFFFF" fill-rule="nonzero"></path>
                    </g>
                </g>
            </g>
        </g>
    </g>
</svg>