<?xml version="1.0" encoding="UTF-8"?>
<svg width="60px" height="60px" viewBox="0 0 60 60" version="1.1" xmlns="http://www.w3.org/2000/svg" xmlns:xlink="http://www.w3.org/1999/xlink">
    <!-- Generator: Sketch 64 (93537) - https://sketch.com -->
    <title>Group 13</title>
    <desc>Created with Sketch.</desc>
    <defs>
        <rect id="path-1" x="0" y="0" width="60" height="60" rx="13"></rect>
        <linearGradient x1="2.01996059%" y1="97.9800409%" x2="97.9800341%" y2="2.01996744%" id="linearGradient-3">
            <stop stop-color="#FD0167" offset="0%"></stop>
            <stop stop-color="#A344B1" offset="100%"></stop>
        </linearGradient>
    </defs>
    <g id="Main_More" stroke="none" stroke-width="1" fill="none" fill-rule="evenodd">
        <g id="200403_Web_메인" transform="translate(-277.000000, -3035.000000)">
            <g id="Group-13" transform="translate(277.000000, 3035.000000)">
                <g id="Group-3">
                    <mask id="mask-2" fill="white">
                        <use xlink:href="#path-1"></use>
                    </mask>
                    <rect stroke="#979797" x="0.5" y="0.5" width="59" height="59" rx="13"></rect>
                    <path d="M4.1379375,0 C1.85264063,0 0,1.85264062 0,4.1379375 L0,4.1379375 L0,55.8620625 C0,58.1473594 1.85264063,60 4.1379375,60 L4.1379375,60 L55.8620625,60 C58.1473594,60 60,58.1473594 60,55.8620625 L60,55.8620625 L60,4.1379375 C60,1.85264062 58.1473594,0 55.8620625,0 L55.8620625,0 L4.1379375,0 Z" id="Fill-1" fill="url(#linearGradient-3)" mask="url(#mask-2)"></path>
                </g>
                <g id="Group-12" transform="translate(11.000000, 25.000000)" fill="#FFFFFF">
                    <path d="M11.7099516,0.00209150198 L10.0529338,6.49517253 L8.38818083,0.00209150198 L11.7099516,0.00209150198 Z M9.61169071,8.13044921 L9.08359585,10.2113623 L6.77663538,10.2113623 L4.23390217,0.00209150198 L7.52743577,0.00209150198 L9.61169071,8.13044921 Z M5.38400296,8.14355395 L4.87010178,10.2113623 L2.56456818,10.2113623 L0.00936857708,0.00209150198 L3.31675791,0.00209150198 L5.38400296,8.14355395 Z" id="Fill-4"></path>
                    <path d="M13.2739895,0.00209150198 L16.8556022,0.00209150198 L18.798446,10.2113623 L15.2268215,10.2113623 L13.2739895,0.00209150198 Z M14.3635982,10.2113623 L10.5166239,10.2113623 L12.7681615,1.80213498 L14.3635982,10.2113623 Z" id="Fill-6"></path>
                    <path d="M27.2455043,6.51038379 C27.2455043,7.85112292 27.0003067,8.79162292 26.508785,9.33139565 C25.9811783,9.91806759 25.0547968,10.211366 23.7303166,10.211366 L23.7303166,0.00209525692 L27.2455043,0.00209525692 L27.2455043,6.51038379 Z M22.9658858,10.211366 C21.6409174,10.211366 20.7238482,9.92737984 20.2143779,9.35925731 C19.7045696,8.79162292 19.4500221,7.84199842 19.4500221,6.51038379 L19.4500221,0.00209525692 L22.9658858,0.00209525692 L22.9658858,10.211366 Z" id="Fill-8"></path>
                    <path d="M37.9903911,5.54631028 C37.8171006,7.9419249 35.9701955,9.87789723 33.6096895,10.2089704 L33.6096895,5.54631028 L37.9903911,5.54631028 Z M37.9903911,4.4268498 L37.9903911,0.013555336 L33.6076994,0.013555336 L37.9903911,4.4268498 Z M32.8710551,10.1956403 C30.2404563,10.0029743 28.1543239,7.79747233 28.1543239,5.1044664 C28.1543239,2.41157312 30.2404563,0.206071146 32.8710551,0.013555336 L32.8710551,10.1956403 Z" id="Fill-10"></path>
                </g>
            </g>
        </g>
    </g>
</svg>