<?xml version="1.0" encoding="utf-8"?>
<!-- Generator: Adobe Illustrator 23.0.1, SVG Export Plug-In . SVG Version: 6.00 Build 0)  -->
<svg version="1.1" id="레이어_1" xmlns="http://www.w3.org/2000/svg" xmlns:xlink="http://www.w3.org/1999/xlink" x="0px"
	 y="0px" viewBox="0 0 46 30" style="enable-background:new 0 0 46 30;" xml:space="preserve">
<style type="text/css">
	.st0{filter:url(#Adobe_OpacityMaskFilter);}
	.st1{fill:#FFFFFF;}
	.st2{mask:url(#b_1_);}
	.st3{fill-rule:evenodd;clip-rule:evenodd;fill:#0A7EC2;stroke:#DADBD2;stroke-width:2;}
</style>
<defs>
	<filter id="Adobe_OpacityMaskFilter" filterUnits="userSpaceOnUse" x="-1" y="-1" width="906.9" height="595.9">
		<feColorMatrix  type="matrix" values="1 0 0 0 0  0 1 0 0 0  0 0 1 0 0  0 0 0 1 0"/>
	</filter>
</defs>
<mask maskUnits="userSpaceOnUse" x="-1" y="-1" width="906.9" height="595.9" id="b_1_">
	<g class="st0">
		<path id="a_1_" class="st1" d="M4,0h38c2.2,0,4,1.8,4,4v22c0,2.2-1.8,4-4,4H4c-2.2,0-4-1.8-4-4V4C0,1.8,1.8,0,4,0z"/>
	</g>
</mask>
<g class="st2">
	<g>
		<path class="st3" d="M4,0h38c2.2,0,4,1.8,4,4v22c0,2.2-1.8,4-4,4H4c-2.2,0-4-1.8-4-4V4C0,1.8,1.8,0,4,0z"/>
	</g>
	<path id="path7" class="st1" d="M219.2,565.5l-12.6,29.4H94.1l88.8-186.2H395l21.4,41.1l20-41.1h75.3h38h172.6l24.4,25.6l26.3-25.6
		h132.8l-94.3,92.9l90.2,93.3H773.3l-28.7-27.4L716,594.9H549.8h-38H257.3l-13.8-29.4 M243.6,567.5h-24.5H243.6z M515.4,435.3h-55.9
		l-42,89.1l-45.2-89.1h-55.9v129l-57.7-129h-52.4l-61.7,133h37.8l12.5-30.3h71.8l14.4,30.3h69.4V460.1l49.2,108.2h32.4l48.9-106.4
		v106.4h34.3L515.4,435.3L515.4,435.3z M746,478.4l-39.9-43.1H546v133h154.8l43.9-43.6l44.1,43.6H830L767,501l64.9-65.7h-43.1
		L746,478.4z M661.7,541.7h-81.4v-29.3h81.4v-26.6h-81.4v-23.9h81.4v-22.6l60.4,60.4l-60.4,60.6V541.7z M231.6,457.1l23.4,54h-48.7
		L231.6,457.1z"/>
</g>
<path id="path7_1_" class="st1" d="M9.2,18.1l-0.6,1.4H3l4.4-9.2h10.4l1.1,2l1-2h3.7h1.9h8.5l1.2,1.3l1.3-1.3H43L38.3,15l4.4,4.6
	h-6.3L35,18.2l-1.4,1.4h-8.2h-1.9H11l-0.7-1.4 M10.4,18.2H9.2H10.4z M23.7,11.7H21l-2.1,4.4l-2.2-4.4h-2.7v6.4l-2.8-6.4H8.5l-3,6.5
	h1.9L8,16.8h3.5l0.7,1.5h3.4v-5.3l2.4,5.3h1.6L22,13v5.2h1.7L23.7,11.7L23.7,11.7z M35.1,13.8l-2-2.1h-7.9v6.5h7.6l2.2-2.1l2.2,2.1
	h2L36.1,15l3.2-3.2h-2.1L35.1,13.8z M30.9,17h-4v-1.4h4v-1.3h-4V13h4v-1.1l3,3l-3,3V17z M9.8,12.8l1.2,2.7H8.5L9.8,12.8z"/>
</svg>
