<?xml version="1.0" encoding="utf-8"?>
<!-- Generator: Adobe Illustrator 23.0.1, SVG Export Plug-In . SVG Version: 6.00 Build 0)  -->
<svg version="1.1" id="Capa_1" xmlns="http://www.w3.org/2000/svg" xmlns:xlink="http://www.w3.org/1999/xlink" x="0px" y="0px"
	 viewBox="0 0 52 52" style="enable-background:new 0 0 52 52;" xml:space="preserve">
<style type="text/css">
	.st0{fill:#333333;}
	.st1{fill:#FFFFFF;}
</style>
<path class="st0" d="M26,51L26,51C12.2,51,1,39.8,1,26l0,0C1,12.2,12.2,1,26,1l0,0c13.8,0,25,11.2,25,25l0,0C51,39.8,39.8,51,26,51z
	"/>
<g>
	<g>
		<path class="st1" d="M13.6,21.6c0,0-1.2,0-2.3,1.1v-4.3H8.6v11.4h2.8v-0.9c0,0,0.7,1.2,2.3,1.2c0,0,3.8-0.1,3.8-4.2
			C17.5,25.8,17.3,21.6,13.6,21.6z M13,27.6c-1,0-1.8-0.8-1.8-1.8S12,24,13,24s1.8,0.8,1.8,1.8C14.8,26.8,14,27.6,13,27.6z"/>
		<path class="st1" d="M18.3,18.1v2.6c0,0,1.2-0.1,1.2,2.3v6.7h2.6v-7.4C22.2,22.4,22.3,18.1,18.3,18.1z"/>
		<path class="st1" d="M28.6,21.7c0,0-4.5,0-4.5,4.2c0,0-0.1,4.2,4.5,4.2c0,0,4.6,0,4.6-4.2C33.3,25.9,33.4,21.7,28.6,21.7z
			 M28.6,27.6c-1,0-1.8-0.8-1.8-1.8s0.8-1.8,1.8-1.8s1.8,0.8,1.8,1.8C30.4,26.8,29.6,27.6,28.6,27.6z"/>
		<path class="st1" d="M40.8,21.9v0.8c0,0-0.8-1-2.3-1c0,0-3.9-0.2-3.9,4.2c0,0,0,4,3.8,4c0,0,1.5,0.1,2.4-1v0.6c0,0,0.2,2-1.7,2
			h-0.7v2.4h1.1c0,0,4,0,4-4.3v-7.7C43.5,21.9,40.8,21.9,40.8,21.9z M39.2,27.6c-1,0-1.8-0.8-1.8-1.8s0.8-1.8,1.8-1.8
			s1.8,0.8,1.8,1.8C40.9,26.8,40.1,27.6,39.2,27.6z"/>
	</g>
</g>
</svg>
