<?xml version="1.0" encoding="utf-8"?>
<!-- Generator: Adobe Illustrator 23.0.1, SVG Export Plug-In . SVG Version: 6.00 Build 0)  -->
<svg version="1.1" id="Capa_1" xmlns="http://www.w3.org/2000/svg" xmlns:xlink="http://www.w3.org/1999/xlink" x="0px" y="0px"
	 viewBox="0 0 52 52" style="enable-background:new 0 0 52 52;" xml:space="preserve">
<style type="text/css">
	.st0{fill:#333333;}
</style>
<g>
	<g>
		<path class="st0" d="M26,0.8C12.2,0.8,1,12,1,25.8s11.2,25,25,25s25-11.2,25-25S39.8,0.8,26,0.8z M32.2,26.7h-4.1
			c0,6.5,0,14.5,0,14.5h-6c0,0,0-7.9,0-14.5h-2.9v-5.1h2.9v-3.3c0-2.4,1.1-6.1,6.1-6.1h4.5v5c0,0-2.7,0-3.2,0s-1.3,0.3-1.3,1.4v3
			h4.6L32.2,26.7z"/>
	</g>
</g>
</svg>
