<?xml version="1.0" encoding="utf-8"?>
<!-- Generator: Adobe Illustrator 23.0.1, SVG Export Plug-In . SVG Version: 6.00 Build 0)  -->
<svg version="1.1"
	 id="google" xmlns:cc="http://creativecommons.org/ns#" xmlns:dc="http://purl.org/dc/elements/1.1/" xmlns:rdf="http://www.w3.org/1999/02/22-rdf-syntax-ns#"
	 xmlns="http://www.w3.org/2000/svg" xmlns:xlink="http://www.w3.org/1999/xlink" x="0px" y="0px" viewBox="0 0 578.5 189.7"
	 style="enable-background:new 0 0 578.5 189.7;" xml:space="preserve">
<style type="text/css">
	.st0{fill:#4885ED;}
	.st1{fill:#DB3236;}
	.st2{fill:#F4C20D;}
	.st3{fill:#3CBA54;}
</style>
<path id="g_1_" class="st0" d="M142.2,67H74.7v20h47.9c-2.4,28.1-25.7,40.1-47.8,40.1c-28.2,0-52.8-22.2-52.8-53.3
	c0-30.3,23.5-53.7,52.9-53.7c22.7,0,36.1,14.5,36.1,14.5L125,20c0,0-18-20-50.8-20C32.3,0,0,35.3,0,73.4c0,37.3,30.4,73.8,75.2,73.8
	c39.4,0,68.2-27,68.2-66.9C143.5,71.8,142.2,67,142.2,67L142.2,67z"/>
<path id="o_1_" class="st1" d="M197.5,52.5c-27.7,0-47.5,21.7-47.5,46.9c0,25.6,19.3,47.7,47.9,47.7c25.9,0,47.1-19.8,47.1-47.1
	C245,68.6,220.3,52.5,197.5,52.5L197.5,52.5z M197.8,71.1c13.6,0,26.5,11,26.5,28.8c0,17.4-12.9,28.7-26.6,28.7
	c-15.1,0-27-12.1-27-28.8C170.7,83.3,182.5,71.1,197.8,71.1L197.8,71.1z"/>
<path id="o" class="st2" d="M300.9,52.5c-27.7,0-47.5,21.7-47.5,46.9c0,25.6,19.3,47.7,47.9,47.7c25.9,0,47.1-19.8,47.1-47.1
	C348.4,68.6,323.7,52.5,300.9,52.5L300.9,52.5z M301.2,71.1c13.6,0,26.5,11,26.5,28.8c0,17.4-12.9,28.7-26.6,28.7
	c-15.1,0-27-12.1-27-28.8C274.1,83.3,285.9,71.1,301.2,71.1L301.2,71.1z"/>
<path id="g" class="st0" d="M402.4,52.5c-25.4,0-45.4,22.3-45.4,47.3c0,28.5,23.2,47.3,45,47.3c13.5,0,20.6-5.4,25.9-11.5v9.3
	c0,16.3-9.9,26.1-24.9,26.1c-14.4,0-21.7-10.7-24.2-16.8l-18.2,7.6c6.4,13.6,19.4,27.9,42.5,27.9c25.3,0,44.5-15.9,44.5-49.3v-85
	h-19.8v8C421.8,56.8,413.4,52.5,402.4,52.5L402.4,52.5z M404.2,71.1c12.5,0,25.3,10.6,25.3,28.8c0,18.5-12.8,28.7-25.5,28.7
	c-13.6,0-26.2-11-26.2-28.5C377.8,81.9,390.9,71.1,404.2,71.1L404.2,71.1z"/>
<path id="e" class="st1" d="M535.9,52.4c-24,0-44.1,19.1-44.1,47.2c0,29.8,22.4,47.5,46.4,47.5c20,0,32.3-10.9,39.6-20.8l-16.4-10.9
	c-4.2,6.6-11.3,13-23.2,13c-13.3,0-19.4-7.3-23.2-14.3l63.4-26.3l-3.3-7.7C569.1,65,554.8,52.4,535.9,52.4L535.9,52.4z M536.7,70.6
	c8.6,0,14.9,4.6,17.5,10.1l-42.4,17.7C510,84.7,523,70.6,536.7,70.6L536.7,70.6z"/>
<path id="l" class="st3" d="M461.5,144.3h20.8V4.9h-20.8V144.3z"/>
</svg>
